<svg xmlns="http://www.w3.org/2000/svg" width="495" height="218" viewBox="0 0 495 218">
<style>
  .header { font: 600 18px "Segoe UI", Ubuntu, sans-serif; fill: #e6edf3; animation: fadeIn 0.8s ease-in-out forwards; }
  .stat { font: 600 15px "Segoe UI", Ubuntu, sans-serif; fill: #c9d1d9; }
  .stagger { opacity: 0; animation: fadeIn 0.3s ease-in-out forwards; }
  .rank-ring { fill: none; stroke: #30363d; stroke-width: 6; }
  .rank-circle { fill: none; stroke: #e6edf3; stroke-width: 6; stroke-linecap: round; animation: drawIn 1s ease-in-out forwards; }
  .rank-text { font: 700 24px "Segoe UI", Ubuntu, sans-serif; fill: #e6edf3; text-anchor: middle; animation: fadeIn 0.8s ease-in-out forwards; }
  @keyframes fadeIn { from { opacity: 0; } to { opacity: 1; } }
  @keyframes drawIn { from { stroke-dashoffset: 345.6; } to { stroke-dashoffset: 234.3; } }
</style>
<rect x="0.5" y="0.5" width="494" height="217" rx="4.5" fill="#151b23" stroke="#30363d" stroke-width="1"/>
<g transform="translate(25, 20)">
  <path d="M1.5 1.75V13.5h13.75a.75.75 0 010 1.5H.75a.75.75 0 01-.75-.75V1.75a.75.75 0 011.5 0zm14.28 2.53l-5.25 5.25a.75.75 0 01-1.06 0L7 7.06 4.28 9.78a.75.75 0 01-1.06-1.06l3.25-3.25a.75.75 0 011.06 0L10 7.94l4.72-4.72a.75.75 0 111.06 1.06z" fill="#e6edf3" transform="scale(1)"/>
  <text x="24" y="14" class="header">GitHub Stats</text>
</g>
<g class="stagger" style="animation-delay: 450ms" transform="translate(25, 56)">
  <path d="M8 .25a.75.75 0 01.673.418l1.882 3.815 4.21.612a.75.75 0 01.416 1.279l-3.046 2.97.719 4.192a.75.75 0 01-1.088.791L8 12.347l-3.766 1.98a.75.75 0 01-1.088-.79l.72-4.194L.818 6.374a.75.75 0 01.416-1.28l4.21-.611L7.327.668A.75.75 0 018 .25z" fill="#c9d1d9" transform="scale(1)"/>
  <text x="24" y="12" class="stat">Total Stars:</text>  <text x="280" y="12" class="stat" font-weight="600" text-anchor="end">18</text>
</g>
<g class="stagger" style="animation-delay: 600ms" transform="translate(25, 81)">
  <path d="M11.93 8.5a4.002 4.002 0 01-7.86 0H.75a.75.75 0 010-1.5h3.32a4.002 4.002 0 017.86 0h3.32a.75.75 0 010 1.5zM8 5a3 3 0 100 6 3 3 0 000-6z" fill="#c9d1d9" transform="scale(1)"/>
  <text x="24" y="12" class="stat">Total Commits:</text>  <text x="280" y="12" class="stat" font-weight="600" text-anchor="end">1,298</text>
</g>
<g class="stagger" style="animation-delay: 750ms" transform="translate(25, 106)">
  <path d="M1.5 3.25a2.25 2.25 0 113 2.122v5.256a2.251 2.251 0 11-1.5 0V5.372A2.25 2.25 0 011.5 3.25zm5.677-.177L9.573.677A.25.25 0 0110 .854V2.5h1A2.5 2.5 0 0113.5 5v5.628a2.251 2.251 0 11-1.5 0V5a1 1 0 00-1-1h-1v1.646a.25.25 0 01-.427.177L7.177 3.427a.25.25 0 010-.354zM3.75 2.5a.75.75 0 100 1.5.75.75 0 000-1.5zm0 9.5a.75.75 0 100 1.5.75.75 0 000-1.5zm8.25.75a.75.75 0 101.5 0 .75.75 0 00-1.5 0z" fill="#c9d1d9" transform="scale(1)"/>
  <text x="24" y="12" class="stat">Total PRs:</text>  <text x="280" y="12" class="stat" font-weight="600" text-anchor="end">6</text>
</g>
<g class="stagger" style="animation-delay: 900ms" transform="translate(25, 131)">
  <path d="M8 9.5a1.5 1.5 0 100-3 1.5 1.5 0 000 3zM8 0a8 8 0 100 16A8 8 0 008 0zM1.5 8a6.5 6.5 0 1113 0 6.5 6.5 0 01-13 0z" fill="#c9d1d9" transform="scale(1)"/>
  <text x="24" y="12" class="stat">Total Issues:</text>  <text x="280" y="12" class="stat" font-weight="600" text-anchor="end">1</text>
</g>
<g class="stagger" style="animation-delay: 1050ms" transform="translate(25, 156)">
  <path d="M1.75 0A1.75 1.75 0 000 1.75v12.5C0 15.216.784 16 1.75 16h8.5A1.75 1.75 0 0012 14.25v-.5h1.25a1.75 1.75 0 001.75-1.75v-8.5A1.75 1.75 0 0013.25 1.75H12v-.5A1.75 1.75 0 0010.25 0h-8.5zM1.5 1.75a.25.25 0 01.25-.25h8.5a.25.25 0 01.25.25v12.5a.25.25 0 01-.25.25h-8.5a.25.25 0 01-.25-.25V1.75zm11 1.5h.75a.25.25 0 01.25.25v8.5a.25.25 0 01-.25.25H12v-9z" fill="#c9d1d9" transform="scale(1)"/>
  <text x="24" y="12" class="stat">Total Repos:</text>  <text x="280" y="12" class="stat" font-weight="600" text-anchor="end">8</text>
</g>
<g class="stagger" style="animation-delay: 1200ms" transform="translate(25, 181)">
  <g transform="translate(16,0) scale(-1,1)">    <path d="M10.561 8.073a6.005 6.005 0 013.432 5.142.75.75 0 11-1.498.07 4.5 4.5 0 00-8.99 0 .75.75 0 01-1.498-.07 6.005 6.005 0 013.431-5.142 3.999 3.999 0 115.123 0zM10.5 5a2.5 2.5 0 10-5 0 2.5 2.5 0 005 0z" fill="#6e7681" transform="translate(-1,3.2) scale(0.75)"/>    <path d="M10.561 8.073a6.005 6.005 0 013.432 5.142.75.75 0 11-1.498.07 4.5 4.5 0 00-8.99 0 .75.75 0 01-1.498-.07 6.005 6.005 0 013.431-5.142 3.999 3.999 0 115.123 0zM10.5 5a2.5 2.5 0 10-5 0 2.5 2.5 0 005 0z" fill="#c9d1d9" transform="translate(3.2,0) scale(0.95)"/>  </g>
  <text x="24" y="12" class="stat">Followers:</text>  <text x="280" y="12" class="stat" font-weight="600" text-anchor="end">3</text>
</g>
<circle cx="405" cy="125.5" r="55" class="rank-ring"/>
<circle cx="405" cy="125.5" r="55" stroke-dasharray="345.6" transform="rotate(-90 405 125.5)" class="rank-circle"/>
<text x="405" y="132.5" class="rank-text">B+</text>
</svg>